<?xml version="1.0"?><svg fill="#000000" xmlns="http://www.w3.org/2000/svg"  viewBox="0 0 30 30" width="60px" height="60px">    <path d="M 6 4 C 4.895 4 4 4.895 4 6 L 4 24 C 4 25.105 4.895 26 6 26 L 24 26 C 25.105 26 26 25.105 26 24 L 26 6 C 26 4.895 25.105 4 24 4 L 6 4 z M 9.3808594 6.2226562 L 10.529297 6.2226562 L 10.988281 8.375 C 11.105281 8.905 11.192047 9.3564687 11.248047 9.7304688 L 11.283203 9.7304688 C 11.322203 9.4624687 11.407969 9.0138125 11.542969 8.3828125 L 12.019531 6.2226562 L 13.167969 6.2226562 L 11.835938 10.970703 L 11.835938 13.248047 L 10.695312 13.248047 L 10.695312 10.970703 L 9.3808594 6.2226562 z M 14.494141 8.015625 C 14.874141 8.015625 15.17725 8.093 15.40625 8.25 C 15.63525 8.406 15.802203 8.6514219 15.908203 8.9824219 C 16.014203 9.3144219 16.068359 9.7565937 16.068359 10.308594 L 16.068359 11.054688 C 16.068359 11.602688 16.015109 12.041047 15.912109 12.373047 C 15.809109 12.705047 15.641156 12.949516 15.410156 13.103516 C 15.179156 13.257516 14.86475 13.332031 14.46875 13.332031 C 14.06175 13.332031 13.741766 13.254656 13.509766 13.097656 C 13.277766 12.941656 13.113625 12.699141 13.015625 12.369141 C 12.917625 12.039141 12.869141 11.601687 12.869141 11.054688 L 12.869141 10.308594 C 12.869141 9.7555937 12.924156 9.3125625 13.035156 8.9765625 C 13.147156 8.6435625 13.323547 8.3971406 13.560547 8.2441406 C 13.797547 8.0901406 14.108141 8.015625 14.494141 8.015625 z M 16.669922 8.1152344 L 17.824219 8.1152344 L 17.824219 11.884766 C 17.824219 12.113766 17.849391 12.277 17.900391 12.375 C 17.951391 12.473 18.034344 12.521484 18.152344 12.521484 C 18.252344 12.521484 18.348406 12.491688 18.441406 12.429688 C 18.533406 12.368688 18.602484 12.290312 18.646484 12.195312 L 18.646484 8.1152344 L 19.802734 8.1152344 L 19.802734 13.25 L 18.896484 13.25 L 18.796875 12.621094 L 18.771484 12.621094 C 18.526484 13.096094 18.158969 13.333984 17.667969 13.333984 C 17.327969 13.333984 17.074109 13.221047 16.912109 12.998047 C 16.750109 12.775047 16.669922 12.426172 16.669922 11.951172 L 16.669922 8.1152344 z M 14.46875 8.8125 C 14.31275 8.8125 14.202672 8.8964063 14.138672 9.0664062 C 14.074672 9.2374062 14.042969 9.507 14.042969 9.875 L 14.042969 11.474609 C 14.042969 11.854609 14.072766 12.127922 14.134766 12.294922 C 14.196766 12.461922 14.308703 12.546875 14.470703 12.546875 C 14.631703 12.545875 14.744594 12.462922 14.808594 12.294922 C 14.872594 12.127922 14.904297 11.853609 14.904297 11.474609 L 14.904297 9.875 C 14.904297 9.506 14.872594 9.2364062 14.808594 9.0664062 C 14.744594 8.8954063 14.63075 8.8125 14.46875 8.8125 z M 8.7773438 14.222656 L 21.222656 14.222656 C 22.200656 14.222656 23 15.022 23 16 L 23 22.222656 C 23 23.200656 22.200656 24 21.222656 24 L 8.7773438 24 C 7.7993437 24 7 23.200656 7 22.222656 L 7 16 C 7 15.022 7.7993437 14.222656 8.7773438 14.222656 z M 15.044922 16 L 15.044922 22.150391 L 15.849609 22.150391 L 15.949219 21.740234 L 15.970703 21.740234 C 16.046703 21.887234 16.158547 22.002891 16.310547 22.087891 C 16.461547 22.171891 16.6285 22.214844 16.8125 22.214844 C 17.1425 22.214844 17.383063 22.063766 17.539062 21.759766 C 17.695062 21.455766 17.773438 20.979984 17.773438 20.333984 L 17.773438 19.648438 L 17.771484 19.648438 C 17.771484 19.163438 17.742594 18.783766 17.683594 18.509766 C 17.624594 18.236766 17.529438 18.039016 17.398438 17.916016 C 17.267437 17.793016 17.084516 17.732422 16.853516 17.732422 C 16.673516 17.732422 16.506562 17.783766 16.351562 17.884766 C 16.195563 17.985766 16.075234 18.118203 15.990234 18.283203 L 15.984375 18.283203 L 15.984375 16 L 15.044922 16 z M 9.2109375 16.220703 L 9.2109375 17.003906 L 10.179688 17.003906 L 10.179688 22.150391 L 11.132812 22.150391 L 11.132812 17.003906 L 12.101562 17.003906 L 12.101562 16.220703 L 9.2109375 16.220703 z M 19.529297 17.734375 C 19.044297 17.734375 18.701953 17.883594 18.501953 18.183594 C 18.301953 18.483594 18.201172 18.958375 18.201172 19.609375 L 18.201172 20.365234 C 18.201172 20.997234 18.298188 21.464625 18.492188 21.765625 C 18.686187 22.066625 19.022906 22.21875 19.503906 22.21875 C 19.904906 22.21875 20.213594 22.119875 20.433594 21.921875 C 20.653594 21.724875 20.763672 21.424437 20.763672 21.023438 C 20.763672 20.957438 20.759859 20.905187 20.755859 20.867188 L 19.914062 20.816406 C 19.910062 21.080406 19.880172 21.269812 19.826172 21.382812 C 19.772172 21.495812 19.670391 21.552734 19.525391 21.552734 C 19.417391 21.552734 19.337156 21.521031 19.285156 21.457031 C 19.233156 21.394031 19.200594 21.291344 19.183594 21.152344 C 19.166594 21.013344 19.158203 20.805344 19.158203 20.527344 L 19.158203 20.306641 L 20.789062 20.306641 L 20.789062 19.566406 C 20.789062 19.109406 20.752688 18.750234 20.679688 18.490234 C 20.605687 18.231234 20.479781 18.041922 20.300781 17.919922 C 20.120781 17.796922 19.864297 17.734375 19.529297 17.734375 z M 11.810547 17.816406 L 11.810547 21.054688 C 11.810547 21.454687 11.878625 21.750453 12.015625 21.939453 C 12.152625 22.127453 12.362391 22.222656 12.650391 22.222656 C 13.065391 22.222656 13.377938 22.021141 13.585938 21.619141 L 13.605469 21.619141 L 13.689453 22.150391 L 14.453125 22.150391 L 14.455078 22.150391 L 14.455078 17.816406 L 13.480469 17.816406 L 13.480469 21.259766 C 13.442469 21.339766 13.384641 21.406031 13.306641 21.457031 C 13.229641 21.509031 13.1475 21.535156 13.0625 21.535156 C 12.9625 21.535156 12.893563 21.495109 12.851562 21.412109 C 12.808563 21.330109 12.787109 21.191047 12.787109 20.998047 L 12.787109 17.816406 L 11.810547 17.816406 z M 19.509766 18.394531 C 19.613766 18.394531 19.690234 18.423422 19.740234 18.482422 C 19.790234 18.541422 19.824797 18.641156 19.841797 18.785156 C 19.860797 18.929156 19.869141 19.141922 19.869141 19.419922 L 19.869141 19.730469 L 19.15625 19.730469 L 19.15625 19.419922 C 19.15625 19.136922 19.164641 18.924156 19.181641 18.785156 C 19.197641 18.646156 19.229297 18.547328 19.279297 18.486328 C 19.329297 18.426328 19.405766 18.394531 19.509766 18.394531 z M 16.414062 18.425781 C 16.514063 18.425781 16.590531 18.464016 16.644531 18.541016 C 16.697531 18.618016 16.736812 18.749594 16.757812 18.933594 C 16.778813 19.117594 16.789063 19.37875 16.789062 19.71875 L 16.789062 20.277344 C 16.789062 20.593344 16.777953 20.841531 16.751953 21.019531 C 16.725953 21.199531 16.681141 21.327344 16.619141 21.402344 C 16.557141 21.477344 16.477047 21.515625 16.373047 21.515625 C 16.292047 21.515625 16.218391 21.494031 16.150391 21.457031 C 16.082391 21.419031 16.026375 21.363109 15.984375 21.287109 L 15.984375 18.828125 C 16.017375 18.711125 16.074297 18.613109 16.154297 18.537109 C 16.234297 18.461109 16.320062 18.425781 16.414062 18.425781 z"/></svg>